<?xml version="1.0" encoding="UTF-8" standalone="no"?><svg xmlns="http://www.w3.org/2000/svg" xmlns:xlink="http://www.w3.org/1999/xlink" contentScriptType="application/ecmascript" contentStyleType="text/css" height="574px" preserveAspectRatio="none" style="width:301px;height:574px;" version="1.1" viewBox="0 0 301 574" width="301px" zoomAndPan="magnify"><defs><filter height="300%" id="frzemdh" width="300%" x="-1" y="-1"><feGaussianBlur result="blurOut" stdDeviation="2.0"/><feColorMatrix in="blurOut" result="blurOut2" type="matrix" values="0 0 0 0 0 0 0 0 0 0 0 0 0 0 0 0 0 0 .4 0"/><feOffset dx="4.0" dy="4.0" in="blurOut2" result="blurOut3"/><feBlend in="SourceGraphic" in2="blurOut3" mode="normal"/></filter><linearGradient id="g8w0u4s0" x1="0%" x2="100%" y1="50%" y2="50%"><stop offset="0%" stop-color="#F4F4F4"/><stop offset="100%" stop-color="#FFFFFF"/></linearGradient></defs><g><!--cluster Sistema Lista de Compras--><rect fill="#FFFFFF" filter="url(#frzemdh)" height="543" style="stroke: #000000; stroke-width: 2.0;" width="272" x="22" y="24"/><path d="M236,25 L236,33.2969 L226,43.2969 L22,43.2969 " fill="none" style="stroke: #000000; stroke-width: 2.0;"/><text fill="#000000" font-family="sans-serif" font-size="14" font-weight="bold" lengthAdjust="spacingAndGlyphs" textLength="204" x="25" y="37.9951">Sistema Lista de Compras</text><!--cluster firebase--><polygon fill="#FFFFFF" filter="url(#frzemdh)" points="74,406,145,406,152,428.2969,242,428.2969,242,543,74,543,74,406" style="stroke: #000000; stroke-width: 2.0;"/><line style="stroke: #000000; stroke-width: 2.0;" x1="74" x2="152" y1="428.2969" y2="428.2969"/><text fill="#000000" font-family="sans-serif" font-size="14" font-weight="bold" lengthAdjust="spacingAndGlyphs" textLength="65" x="78" y="420.9951">firebase</text><!--class List--><rect fill="url(#g8w0u4s0)" filter="url(#frzemdh)" height="86.4141" style="stroke: #383838; stroke-width: 1.5;" width="216" x="50" y="59"/><ellipse cx="143.25" cy="75" fill="#C2C2C2" rx="11" ry="11" style="stroke: #383838; stroke-width: 1.0;"/><path d="M145.5938,70.6719 L145.7656,70.75 C145.9844,70.4375 146.1875,70.3438 146.4844,70.3438 C146.7813,70.3438 147.0625,70.4844 147.2188,70.75 C147.3125,70.9063 147.3281,71.0313 147.3281,71.4688 L147.3281,72.8906 C147.3281,73.3125 147.2969,73.5 147.1875,73.6563 C147.0156,73.875 146.75,74.0156 146.4844,74.0156 C146.2656,74.0156 146.0313,73.9063 145.8906,73.7656 C145.75,73.6406 145.7188,73.5156 145.6563,73.1094 C145.5625,72.7031 145.3906,72.4844 144.9063,72.2031 C144.4375,71.9531 143.8281,71.7969 143.25,71.7969 C141.5156,71.7969 140.2656,73.1094 140.2656,74.8906 L140.2656,75.9844 C140.2656,77.6875 141.5625,78.7813 143.6094,78.7813 C144.375,78.7813 145.0625,78.6563 145.4844,78.3906 C145.6719,78.2969 145.6719,78.2969 146.125,77.8125 C146.3125,77.625 146.5156,77.5469 146.7344,77.5469 C147.2031,77.5469 147.5938,77.9375 147.5938,78.3906 C147.5938,78.7813 147.2656,79.2344 146.6875,79.6406 C145.9375,80.1875 144.7813,80.4844 143.5625,80.4844 C140.6719,80.4844 138.5625,78.5938 138.5625,76.0156 L138.5625,74.8906 C138.5625,72.1719 140.5625,70.0938 143.1875,70.0938 C144.0625,70.0938 144.6563,70.2344 145.5938,70.6719 Z "/><text fill="#000000" font-family="sans-serif" font-size="12" lengthAdjust="spacingAndGlyphs" textLength="21" x="163.75" y="79.1543">List</text><line style="stroke: #383838; stroke-width: 1.5;" x1="51" x2="265" y1="91" y2="91"/><line style="stroke: #383838; stroke-width: 1.5;" x1="51" x2="265" y1="99" y2="99"/><ellipse cx="61" cy="110.9023" fill="#A6A6A6" rx="3" ry="3" style="stroke: #545454; stroke-width: 1.0;"/><text fill="#000000" font-family="sans-serif" font-size="11" lengthAdjust="spacingAndGlyphs" textLength="100" x="70" y="113.2104">string getName();</text><ellipse cx="61" cy="123.707" fill="#A6A6A6" rx="3" ry="3" style="stroke: #545454; stroke-width: 1.0;"/><text fill="#000000" font-family="sans-serif" font-size="11" lengthAdjust="spacingAndGlyphs" textLength="169" x="70" y="126.0151">string setName(string name);</text><ellipse cx="61" cy="136.5117" fill="#A6A6A6" rx="3" ry="3" style="stroke: #545454; stroke-width: 1.0;"/><text fill="#000000" font-family="sans-serif" font-size="11" lengthAdjust="spacingAndGlyphs" textLength="190" x="70" y="138.8198">string updateName(string name);</text><!--class Item--><rect fill="url(#g8w0u4s0)" filter="url(#frzemdh)" height="176.0469" style="stroke: #383838; stroke-width: 1.5;" width="240" x="38" y="205"/><ellipse cx="140.25" cy="221" fill="#C2C2C2" rx="11" ry="11" style="stroke: #383838; stroke-width: 1.0;"/><path d="M142.5938,216.6719 L142.7656,216.75 C142.9844,216.4375 143.1875,216.3438 143.4844,216.3438 C143.7813,216.3438 144.0625,216.4844 144.2188,216.75 C144.3125,216.9063 144.3281,217.0313 144.3281,217.4688 L144.3281,218.8906 C144.3281,219.3125 144.2969,219.5 144.1875,219.6563 C144.0156,219.875 143.75,220.0156 143.4844,220.0156 C143.2656,220.0156 143.0313,219.9063 142.8906,219.7656 C142.75,219.6406 142.7188,219.5156 142.6563,219.1094 C142.5625,218.7031 142.3906,218.4844 141.9063,218.2031 C141.4375,217.9531 140.8281,217.7969 140.25,217.7969 C138.5156,217.7969 137.2656,219.1094 137.2656,220.8906 L137.2656,221.9844 C137.2656,223.6875 138.5625,224.7813 140.6094,224.7813 C141.375,224.7813 142.0625,224.6563 142.4844,224.3906 C142.6719,224.2969 142.6719,224.2969 143.125,223.8125 C143.3125,223.625 143.5156,223.5469 143.7344,223.5469 C144.2031,223.5469 144.5938,223.9375 144.5938,224.3906 C144.5938,224.7813 144.2656,225.2344 143.6875,225.6406 C142.9375,226.1875 141.7813,226.4844 140.5625,226.4844 C137.6719,226.4844 135.5625,224.5938 135.5625,222.0156 L135.5625,220.8906 C135.5625,218.1719 137.5625,216.0938 140.1875,216.0938 C141.0625,216.0938 141.6563,216.2344 142.5938,216.6719 Z "/><text fill="#000000" font-family="sans-serif" font-size="12" lengthAdjust="spacingAndGlyphs" textLength="27" x="160.75" y="225.1543">Item</text><line style="stroke: #383838; stroke-width: 1.5;" x1="39" x2="277" y1="237" y2="237"/><line style="stroke: #383838; stroke-width: 1.5;" x1="39" x2="277" y1="245" y2="245"/><ellipse cx="49" cy="256.9023" fill="#A6A6A6" rx="3" ry="3" style="stroke: #545454; stroke-width: 1.0;"/><text fill="#000000" font-family="sans-serif" font-size="11" lengthAdjust="spacingAndGlyphs" textLength="54" x="58" y="259.2104">int getId()</text><ellipse cx="49" cy="269.707" fill="#A6A6A6" rx="3" ry="3" style="stroke: #545454; stroke-width: 1.0;"/><text fill="#000000" font-family="sans-serif" font-size="11" lengthAdjust="spacingAndGlyphs" textLength="91" x="58" y="272.0151">void setId(int id)</text><ellipse cx="49" cy="282.5117" fill="#A6A6A6" rx="3" ry="3" style="stroke: #545454; stroke-width: 1.0;"/><text fill="#000000" font-family="sans-serif" font-size="11" lengthAdjust="spacingAndGlyphs" textLength="127" x="58" y="284.8198">string getDescription()</text><ellipse cx="49" cy="295.3164" fill="#A6A6A6" rx="3" ry="3" style="stroke: #545454; stroke-width: 1.0;"/><text fill="#000000" font-family="sans-serif" font-size="11" lengthAdjust="spacingAndGlyphs" textLength="97" x="58" y="297.6245">void setUser(uid)</text><ellipse cx="49" cy="308.1211" fill="#A6A6A6" rx="3" ry="3" style="stroke: #545454; stroke-width: 1.0;"/><text fill="#000000" font-family="sans-serif" font-size="11" lengthAdjust="spacingAndGlyphs" textLength="53" x="58" y="310.4292">getUser()</text><ellipse cx="49" cy="320.9258" fill="#A6A6A6" rx="3" ry="3" style="stroke: #545454; stroke-width: 1.0;"/><text fill="#000000" font-family="sans-serif" font-size="11" lengthAdjust="spacingAndGlyphs" textLength="214" x="58" y="323.2339">void setModified(timestamp modified)</text><ellipse cx="49" cy="333.7305" fill="#A6A6A6" rx="3" ry="3" style="stroke: #545454; stroke-width: 1.0;"/><text fill="#000000" font-family="sans-serif" font-size="11" lengthAdjust="spacingAndGlyphs" textLength="138" x="58" y="336.0386">timestamp getModified()</text><ellipse cx="49" cy="346.5352" fill="#A6A6A6" rx="3" ry="3" style="stroke: #545454; stroke-width: 1.0;"/><text fill="#000000" font-family="sans-serif" font-size="11" lengthAdjust="spacingAndGlyphs" textLength="214" x="58" y="348.8433">void setModified(timestamp modified)</text><ellipse cx="49" cy="359.3398" fill="#A6A6A6" rx="3" ry="3" style="stroke: #545454; stroke-width: 1.0;"/><text fill="#000000" font-family="sans-serif" font-size="11" lengthAdjust="spacingAndGlyphs" textLength="81" x="58" y="361.6479">int getStatus()</text><ellipse cx="49" cy="372.1445" fill="#A6A6A6" rx="3" ry="3" style="stroke: #545454; stroke-width: 1.0;"/><text fill="#000000" font-family="sans-serif" font-size="11" lengthAdjust="spacingAndGlyphs" textLength="144" x="58" y="374.4526">void setStatus(int status)</text><!--class firebase.User--><rect fill="url(#g8w0u4s0)" filter="url(#frzemdh)" height="86.4141" style="stroke: #383838; stroke-width: 1.5;" width="136" x="90" y="441"/><ellipse cx="139.75" cy="457" fill="#B1B1B1" rx="11" ry="11" style="stroke: #383838; stroke-width: 1.0;"/><path d="M140.7031,453.7813 L140.7031,460.2969 L142.4219,460.2969 C142.875,460.2969 143.0156,460.3281 143.1875,460.4531 C143.4219,460.625 143.5313,460.875 143.5313,461.1563 C143.5313,461.7188 143.1719,462 142.4219,462 L137.2813,462 C136.875,462 136.6719,461.9531 136.5156,461.8281 C136.2969,461.6719 136.1563,461.4063 136.1563,461.1563 C136.1563,460.8594 136.3125,460.5781 136.5625,460.4219 C136.7188,460.3125 136.8438,460.2969 137.2813,460.2969 L139,460.2969 L139,453.7813 L137.2813,453.7813 C136.8594,453.7813 136.6719,453.75 136.5156,453.6406 C136.2969,453.4688 136.1563,453.2188 136.1563,452.9375 C136.1563,452.6563 136.3125,452.3594 136.5625,452.2031 C136.7188,452.1094 136.8438,452.0938 137.2813,452.0938 L142.4219,452.0938 C142.875,452.0938 143.0156,452.125 143.1875,452.2344 C143.4219,452.4063 143.5313,452.6719 143.5313,452.9375 C143.5313,453.2344 143.3906,453.5156 143.125,453.6719 C143,453.75 142.8125,453.7813 142.4219,453.7813 Z "/><text fill="#000000" font-family="sans-serif" font-size="12" font-style="italic" lengthAdjust="spacingAndGlyphs" textLength="28" x="160.25" y="461.1543">User</text><line style="stroke: #383838; stroke-width: 1.5;" x1="91" x2="225" y1="473" y2="473"/><ellipse cx="101" cy="484.9023" fill="none" rx="3" ry="3" style="stroke: #545454; stroke-width: 1.0;"/><text fill="#000000" font-family="sans-serif" font-size="11" lengthAdjust="spacingAndGlyphs" text-decoration="underline" textLength="110" x="110" y="487.2104">string displayName</text><line style="stroke: #000000; stroke-width: 1.0;" x1="110" x2="220" y1="489.2104" y2="489.2104"/><ellipse cx="101" cy="497.707" fill="none" rx="3" ry="3" style="stroke: #545454; stroke-width: 1.0;"/><text fill="#000000" font-family="sans-serif" font-size="11" lengthAdjust="spacingAndGlyphs" text-decoration="underline" textLength="68" x="110" y="500.0151">string email</text><line style="stroke: #000000; stroke-width: 1.0;" x1="110" x2="178" y1="502.0151" y2="502.0151"/><ellipse cx="101" cy="510.5117" fill="none" rx="3" ry="3" style="stroke: #545454; stroke-width: 1.0;"/><text fill="#000000" font-family="sans-serif" font-size="11" lengthAdjust="spacingAndGlyphs" text-decoration="underline" textLength="17" x="110" y="512.8198">uid</text><line style="stroke: #000000; stroke-width: 1.0;" x1="110" x2="127" y1="514.8198" y2="514.8198"/><line style="stroke: #383838; stroke-width: 1.5;" x1="91" x2="225" y1="519.4141" y2="519.4141"/><path d="M158,145.415 C158,163.047 158,184.196 158,204.871 " fill="none" style="stroke: #383838; stroke-width: 1.0;"/><text fill="#000000" font-family="sans-serif" font-size="13" lengthAdjust="spacingAndGlyphs" textLength="8" x="149.3625" y="165.5741">3</text><text fill="#000000" font-family="sans-serif" font-size="13" lengthAdjust="spacingAndGlyphs" textLength="23" x="134.0477" y="194.0222">0..*</text><path d="M158,401.454 C158,415.305 158,428.778 158,440.652 " fill="none" style="stroke: #383838; stroke-width: 1.0; stroke-dasharray: 7.0,7.0;"/><polygon fill="none" points="151,401.032,158,381.032,165,401.032,151,401.032" style="stroke: #383838; stroke-width: 1.0;"/></g></svg>
