<?xml version="1.0" encoding="UTF-8" standalone="no"?><svg xmlns="http://www.w3.org/2000/svg" xmlns:xlink="http://www.w3.org/1999/xlink" contentScriptType="application/ecmascript" contentStyleType="text/css" height="508px" preserveAspectRatio="none" style="width:548px;height:508px;" version="1.1" viewBox="0 0 548 508" width="548px" zoomAndPan="magnify"><defs><filter height="300%" id="ftxp4p0" width="300%" x="-1" y="-1"><feGaussianBlur result="blurOut" stdDeviation="2.0"/><feColorMatrix in="blurOut" result="blurOut2" type="matrix" values="0 0 0 0 0 0 0 0 0 0 0 0 0 0 0 0 0 0 .4 0"/><feOffset dx="4.0" dy="4.0" in="blurOut2" result="blurOut3"/><feBlend in="SourceGraphic" in2="blurOut3" mode="normal"/></filter><linearGradient id="gukzhn60" x1="0%" x2="100%" y1="50%" y2="50%"><stop offset="0%" stop-color="#F4F4F4"/><stop offset="100%" stop-color="#FFFFFF"/></linearGradient></defs><g><!--cluster Lista de Compras--><rect fill="#FFFFFF" filter="url(#ftxp4p0)" height="477" style="stroke: #000000; stroke-width: 2.0;" width="180" x="186" y="24"/><text fill="#000000" font-family="sans-serif" font-size="14" font-weight="bold" lengthAdjust="spacingAndGlyphs" textLength="137" x="207.5" y="38.9951">Lista de Compras</text><ellipse cx="275.8417" cy="75.1683" fill="url(#gukzhn60)" filter="url(#ftxp4p0)" rx="66.3417" ry="15.6683" style="stroke: #383838; stroke-width: 1.5;"/><text fill="#000000" font-family="sans-serif" font-size="14" lengthAdjust="spacingAndGlyphs" textLength="97" x="227.3417" y="79.8168">seleciona lista</text><ellipse cx="275.966" cy="140.9932" fill="url(#gukzhn60)" filter="url(#ftxp4p0)" rx="62.966" ry="14.9932" style="stroke: #383838; stroke-width: 1.5;"/><text fill="#000000" font-family="sans-serif" font-size="14" lengthAdjust="spacingAndGlyphs" textLength="88" x="231.966" y="145.6416">visualiza lista</text><ellipse cx="276.0752" cy="206.215" fill="url(#gukzhn60)" filter="url(#ftxp4p0)" rx="64.0752" ry="15.215" style="stroke: #383838; stroke-width: 1.5;"/><text fill="#000000" font-family="sans-serif" font-size="14" lengthAdjust="spacingAndGlyphs" textLength="91" x="230.5752" y="210.8635">adiciona item</text><ellipse cx="276.0833" cy="271.0236" fill="url(#gukzhn60)" filter="url(#ftxp4p0)" rx="51.0833" ry="14.5236" style="stroke: #383838; stroke-width: 1.5;"/><text fill="#000000" font-family="sans-serif" font-size="14" lengthAdjust="spacingAndGlyphs" textLength="68" x="242.0833" y="275.6721">edita item</text><ellipse cx="276.2362" cy="335.8472" fill="url(#gukzhn60)" filter="url(#ftxp4p0)" rx="62.2362" ry="14.8472" style="stroke: #383838; stroke-width: 1.5;"/><text fill="#000000" font-family="sans-serif" font-size="14" lengthAdjust="spacingAndGlyphs" textLength="86" x="233.2362" y="340.4957">remove item</text><ellipse cx="275.8797" cy="403.1759" fill="url(#gukzhn60)" filter="url(#ftxp4p0)" rx="73.8797" ry="17.1759" style="stroke: #383838; stroke-width: 1.5;"/><text fill="#000000" font-family="sans-serif" font-size="14" lengthAdjust="spacingAndGlyphs" textLength="116" x="217.8797" y="407.8244">marca comprado</text><ellipse cx="276.0143" cy="470.2029" fill="url(#gukzhn60)" filter="url(#ftxp4p0)" rx="61.5143" ry="14.7029" style="stroke: #383838; stroke-width: 1.5;"/><text fill="#000000" font-family="sans-serif" font-size="14" lengthAdjust="spacingAndGlyphs" textLength="84" x="234.0143" y="474.8513">encerra lista</text><!--entity comprador--><ellipse cx="43.5" cy="239.5" fill="#F8F8F8" filter="url(#ftxp4p0)" rx="8" ry="8" style="stroke: #383838; stroke-width: 2.0;"/><path d="M43.5,247.5 L43.5,274.5 M30.5,255.5 L56.5,255.5 M43.5,274.5 L30.5,289.5 M43.5,274.5 L56.5,289.5 " fill="#F8F8F8" filter="url(#ftxp4p0)" style="stroke: #383838; stroke-width: 2.0;"/><text fill="#000000" font-family="sans-serif" font-size="14" lengthAdjust="spacingAndGlyphs" textLength="75" x="6" y="309.4951">comprador</text><!--entity funcionário--><ellipse cx="509" cy="174.5" fill="#F8F8F8" filter="url(#ftxp4p0)" rx="8" ry="8" style="stroke: #383838; stroke-width: 2.0;"/><path d="M509,182.5 L509,209.5 M496,190.5 L522,190.5 M509,209.5 L496,224.5 M509,209.5 L522,224.5 " fill="#F8F8F8" filter="url(#ftxp4p0)" style="stroke: #383838; stroke-width: 2.0;"/><text fill="#000000" font-family="sans-serif" font-size="14" lengthAdjust="spacingAndGlyphs" textLength="76" x="471" y="244.4951">funcionário</text><path d="M69.5046,229.283 C93.2675,192.883 132.126,141.017 178,109 C192.926,98.583 211.357,91.069 228.13,85.799 " fill="none" style="stroke: #383838; stroke-width: 1.0;"/><path d="M81.07,239.767 C106.847,218.957 142.898,192.191 178,174 C195.373,164.997 215.725,157.638 233.289,152.172 " fill="none" style="stroke: #383838; stroke-width: 1.0;"/><path d="M81.0234,260.701 C122.788,248.923 190.973,229.695 234.379,217.455 " fill="none" style="stroke: #383838; stroke-width: 1.0;"/><path d="M81.0234,271 C119.868,271 181.568,271 224.929,271 " fill="none" style="stroke: #383838; stroke-width: 1.0;"/><path d="M81.0234,281.299 C122.915,293.113 191.387,312.422 234.774,324.656 " fill="none" style="stroke: #383838; stroke-width: 1.0;"/><path d="M81.0726,302.475 C106.851,323.464 142.902,350.496 178,369 C193.785,377.322 212.039,384.331 228.425,389.782 " fill="none" style="stroke: #383838; stroke-width: 1.0;"/><path d="M68.1586,312.771 C91.5346,350.514 130.609,405.051 178,438 C192.997,448.4265 211.628,455.6431 228.542,460.5449 " fill="none" style="stroke: #383838; stroke-width: 1.0;"/><path d="M319.17,86.841 C336.62,92.484 356.764,99.986 374,109 C408.993,127.3 445.053,153.925 470.939,174.653 " fill="none" style="stroke: #383838; stroke-width: 1.0;"/><path d="M317.501,152.397 C360.849,164.594 429.025,183.778 470.982,195.584 " fill="none" style="stroke: #383838; stroke-width: 1.0;"/><path d="M340.122,206 C382.067,206 435.705,206 470.918,206 " fill="none" style="stroke: #383838; stroke-width: 1.0;"/><path d="M312.84,260.915 C355.8,248.827 427.428,228.672 470.927,216.432 " fill="none" style="stroke: #383838; stroke-width: 1.0;"/><path d="M318.225,324.961 C335.896,319.478 356.461,312.07 374,303 C409.077,284.861 445.131,258.224 470.993,237.451 " fill="none" style="stroke: #383838; stroke-width: 1.0;"/></g></svg>
